<svg width="800" height="800" viewBox="0 0 800 800" fill="none" xmlns="http://www.w3.org/2000/svg">
<path d="M602.416 540.482C603.602 536.074 609.857 536.074 611.044 540.482L622.24 582.066C622.654 583.604 623.855 584.805 625.393 585.219L666.977 596.416C671.385 597.602 671.385 603.857 666.977 605.044L625.393 616.24C623.855 616.654 622.654 617.855 622.24 619.393L611.044 660.977C609.857 665.385 603.602 665.385 602.416 660.977L591.219 619.393C590.805 617.855 589.604 616.654 588.066 616.24L546.482 605.044C542.074 603.857 542.074 597.602 546.482 596.416L588.066 585.219C589.604 584.805 590.805 583.604 591.219 582.066L602.416 540.482Z" fill="#BCBFFF"/>
<path d="M704.283 367.634C705.663 362.507 712.937 362.507 714.317 367.634L727.338 415.995C727.82 417.783 729.217 419.18 731.005 419.661L779.366 432.683C784.493 434.063 784.493 441.337 779.366 442.717L731.005 455.738C729.217 456.22 727.82 457.616 727.338 459.404L714.317 507.766C712.937 512.892 705.663 512.892 704.283 507.766L691.262 459.404C690.78 457.616 689.384 456.22 687.596 455.738L639.234 442.717C634.108 441.337 634.108 434.063 639.234 432.683L687.596 419.661C689.384 419.18 690.78 417.783 691.262 415.995L704.283 367.634Z" fill="#BCBFFF"/>
<path d="M431.36 630.691C432.388 626.871 437.809 626.871 438.837 630.691L448.54 666.729C448.899 668.062 449.94 669.103 451.273 669.462L487.311 679.165C491.131 680.193 491.131 685.614 487.311 686.642L451.273 696.346C449.94 696.704 448.899 697.745 448.54 699.078L438.837 735.116C437.809 738.937 432.388 738.937 431.36 735.116L421.656 699.078C421.298 697.745 420.257 696.704 418.924 696.346L382.886 686.642C379.066 685.614 379.065 680.193 382.886 679.165L418.924 669.462C420.257 669.103 421.298 668.062 421.656 666.729L431.36 630.691Z" fill="#BCBFFF"/>
<path d="M459.498 539.947H238.756L195.987 701.674C184.743 744.192 145.944 774.235 101.114 774.235C36.1353 774.235 -10.1248 713.169 6.35324 651.97L155.721 97.2257C168.339 50.3642 214.137 20.5077 261.923 26.8458L263.724 27.0847H701.488C755.165 27.0847 798 70.2829 798 122.731C798 175.18 755.165 218.378 701.488 218.378H373.358C344.13 218.378 318.552 238.209 311.014 266.715C300.077 308.072 330.954 348.653 373.358 348.653H459.498C513.175 348.653 556.01 391.851 556.01 444.3C556.01 496.748 513.175 539.947 459.498 539.947Z" fill="url(#paint0_linear_2_12139)"/>
<defs>
<linearGradient id="paint0_linear_2_12139" x1="798" y1="301.635" x2="-572.239" y2="301.635" gradientUnits="userSpaceOnUse">
<stop stop-color="#4C52FE"/>
<stop offset="1" stop-color="#BCBFFF"/>
</linearGradient>
</defs>
</svg>
