<svg width="36" height="36" viewBox="0 0 36 36" fill="none" xmlns="http://www.w3.org/2000/svg">
<g clip-path="url(#clip0_3746_2912)">
<mask id="mask0_3746_2912" style="mask-type:luminance" maskUnits="userSpaceOnUse" x="0" y="0" width="36" height="36">
<path d="M36 0H0V36H36V0Z" fill="white"/>
</mask>
<g mask="url(#mask0_3746_2912)">
<path d="M26.4 0H9.6C4.29806 0 0 4.29806 0 9.6V26.4C0 31.7019 4.29806 36 9.6 36H26.4C31.7019 36 36 31.7019 36 26.4V9.6C36 4.29806 31.7019 0 26.4 0Z" fill="black"/>
<path fill-rule="evenodd" clip-rule="evenodd" d="M27.5952 7.9256L27.6887 8.01827L27.6914 8.01562C29.492 9.82327 28.9756 13.4554 26.3648 17.5729L31.5 22.7099L31.2794 23.1397C30.4163 24.8235 29.2475 26.332 27.8326 27.5882C25.9691 29.2518 23.7198 30.4241 21.2887 30.9987L21.2005 31.0199L21.0743 31.0499L20.9833 31.0702L20.7829 31.1144C20.7278 31.1259 20.6724 31.1368 20.6171 31.147L20.4925 31.1709C20.3601 31.1973 20.2217 31.2221 20.0865 31.245L19.9736 31.2618L19.888 31.2723C19.7652 31.2891 19.6461 31.3041 19.5244 31.3182C17.5002 31.5462 15.4507 31.3189 13.5258 30.6529C11.6009 29.9869 9.84908 28.8992 8.39863 27.4691L8.3139 27.3869C6.50978 25.5793 7.02082 21.9446 9.63521 17.8244L4.5 12.6875L4.72066 12.2576C5.58218 10.5731 6.75223 9.06538 8.17002 7.81261C9.61886 6.52363 11.3016 5.52466 13.1269 4.86989C13.5506 4.7172 13.9936 4.58392 14.4288 4.47093C14.7876 4.3751 15.15 4.29412 15.5153 4.2282C15.639 4.2035 15.7783 4.17789 15.9135 4.15494C18.0198 3.82656 20.1738 3.9966 22.2025 4.65144C24.2314 5.30629 26.0783 6.42768 27.5952 7.9256ZM25.859 8.14625H25.8537L25.859 8.1489C24.114 7.60873 21.3452 8.48166 18.4184 10.4102C20.6453 9.78973 22.7989 10.111 24.1909 11.5038C25.5095 12.8252 25.8705 14.8305 25.3709 16.9374C25.3479 17.0503 25.318 17.1633 25.2827 17.2789C27.672 13.6645 28.4364 10.2831 26.9235 8.77293C26.8982 8.74615 26.8716 8.72053 26.8441 8.69614L26.8326 8.68554L26.8158 8.67054C26.7987 8.65806 26.782 8.6451 26.7655 8.6317C26.7435 8.61405 26.7213 8.5964 26.6976 8.58051L26.6605 8.55403C26.4191 8.37259 26.1478 8.23461 25.859 8.14625ZM24.6613 16.2709C24.3532 18.1086 23.3373 19.9658 21.7971 21.5042C20.2614 23.0435 18.4007 24.0603 16.5604 24.3709C14.8384 24.6623 13.3528 24.2827 12.3794 23.3118C11.4084 22.3401 11.0289 20.8598 11.3202 19.129C11.6282 17.2931 12.6415 15.4352 14.1747 13.8984C14.1747 13.8984 14.1773 13.8984 14.1834 13.8896L14.1887 13.8807C15.7272 12.3521 17.5807 11.3379 19.4166 11.0307C21.1386 10.7395 22.6206 11.1172 23.5977 12.0899C24.5687 13.0608 24.9481 14.5436 24.6569 16.2718H24.6621L24.6613 16.2709ZM9.05619 8.80382C7.88417 9.84112 6.89713 11.0702 6.1373 12.4385L6.12847 12.4412L10.584 16.8862C10.9477 16.3751 11.3343 15.8694 11.7492 15.3698C11.8938 15.1977 12.043 15.0194 12.1958 14.8419L12.2539 14.7758L12.4658 14.5392C12.472 14.5339 12.4782 14.5224 12.4782 14.5224L12.5171 14.4783L12.5373 14.4545C12.5741 14.4141 12.6106 14.3735 12.6468 14.3327C12.7033 14.27 12.7598 14.2056 12.8198 14.1447C12.8198 14.1385 12.8286 14.1297 12.8286 14.1297L12.9239 14.0255C12.9473 14.0027 12.97 13.9792 12.9918 13.9549C12.9945 13.9496 12.9972 13.9496 12.9972 13.9496C13.0033 13.9461 13.0033 13.9408 13.0033 13.9408C13.0069 13.9364 13.0122 13.9311 13.0157 13.925C13.0195 13.9197 13.0237 13.9146 13.0281 13.9099C13.039 13.9018 13.0488 13.8923 13.0572 13.8816C13.0626 13.8756 13.0682 13.8697 13.074 13.864C13.1102 13.8279 13.1534 13.7855 13.1922 13.743C13.2117 13.7175 13.2373 13.6928 13.2628 13.6672L13.2991 13.6301C13.3053 13.6213 13.322 13.6046 13.322 13.6046L13.39 13.5374L13.5224 13.4068L13.5665 13.36L13.6159 13.3079C14.5704 12.351 15.5899 11.4612 16.6672 10.645L16.8084 10.5417L16.8093 10.5409L16.8111 10.54L16.9523 10.4358C17.1111 10.3175 17.2683 10.2019 17.429 10.0889C17.5993 9.97332 17.7714 9.85682 17.9408 9.74472C20.2552 8.20186 22.5218 7.27596 24.3718 7.09238C21.8968 5.59917 18.9754 5.02427 16.1191 5.46832C15.9955 5.48774 15.8772 5.50804 15.7501 5.53363C15.6698 5.54776 15.6001 5.56188 15.5295 5.576L15.4871 5.58483C14.8385 5.71894 14.2 5.89796 13.5762 6.12059C11.9116 6.7167 10.3764 7.6277 9.05619 8.80382ZM9.30157 26.8168C9.54783 27.0057 9.83027 27.1469 10.1463 27.2457H10.1401C11.8965 27.7824 14.6548 26.9068 17.571 24.9835C15.3468 25.6013 13.1976 25.2801 11.8056 23.8873C10.4931 22.5722 10.1321 20.5607 10.6291 18.4538C10.6547 18.3408 10.682 18.2277 10.7164 18.1122C8.32802 21.7275 7.56541 25.108 9.0765 26.619C9.11004 26.6526 9.14711 26.6862 9.18594 26.7206C9.22301 26.7541 9.26009 26.7849 9.30157 26.8168ZM29.8601 22.9596V22.9614C29.0992 24.3277 28.113 25.5558 26.943 26.5935C25.192 28.1497 23.0745 29.2356 20.7891 29.7498L20.7609 29.7569L20.685 29.7745C20.5991 29.7975 20.5122 29.8163 20.4246 29.831C20.3672 29.8434 20.3099 29.8548 20.2499 29.8636C20.1269 29.8877 20.0033 29.9083 19.8791 29.9254L19.7759 29.943L19.6585 29.9581C19.5641 29.9705 19.4687 29.9837 19.369 29.9934C16.6741 30.2972 13.9543 29.7036 11.6308 28.3049C13.412 28.1292 15.5807 27.2598 17.8049 25.8221L17.932 25.739L18.0592 25.6552L18.2321 25.5387L18.5676 25.311C18.7282 25.198 18.8889 25.0824 19.0441 24.9641C19.143 24.8935 19.2366 24.8255 19.3319 24.7549C20.4084 23.937 21.4281 23.047 22.3841 22.0911C22.4071 22.0682 22.4282 22.0443 22.4485 22.0223L22.475 21.9922C22.5226 21.9481 22.565 21.9049 22.6074 21.8625L22.6745 21.7955C22.6745 21.7955 22.6921 21.7778 22.6947 21.7689C22.7036 21.7619 22.7124 21.753 22.7204 21.7443C22.7238 21.7403 22.7274 21.7365 22.731 21.7328L22.8078 21.6569L22.8669 21.5951C22.8863 21.5765 22.9066 21.5563 22.926 21.535C22.9316 21.5294 22.9368 21.5234 22.9419 21.5174C22.9504 21.5071 22.9602 21.4979 22.971 21.49C22.9758 21.4851 22.9803 21.4798 22.9843 21.4742C22.988 21.4689 22.9922 21.4639 22.9967 21.4592C22.9967 21.4592 23.0055 21.4503 23.0108 21.4477C23.0189 21.4393 23.0268 21.4307 23.0346 21.4221L23.0585 21.3964L23.0814 21.3744C23.0557 21.4 23.0337 21.4274 23.0108 21.4556L23.0654 21.3982L23.0663 21.3964C23.1053 21.3559 23.1423 21.3162 23.1802 21.2782C23.1802 21.2782 23.1802 21.2694 23.1891 21.2694C23.2411 21.2137 23.2905 21.1581 23.3399 21.1017L23.4397 20.9904C23.4522 20.9812 23.4627 20.9695 23.4707 20.956L23.5271 20.888L23.5412 20.8713C23.6109 20.798 23.6763 20.723 23.7433 20.648L23.8122 20.5685C23.9226 20.4406 24.0328 20.3091 24.1423 20.1793L24.2747 20.0213L24.3162 19.9701C24.3692 19.9039 24.4212 19.8386 24.4732 19.776C24.5175 19.723 24.5607 19.6683 24.6031 19.6135C24.8852 19.2561 25.1589 18.8921 25.4239 18.5217L29.8601 22.9596ZM29.8601 22.9596C29.8601 22.957 29.8618 22.9543 29.8654 22.9525V22.9667L29.8601 22.9614H29.8618L29.8601 22.9596Z" fill="white"/>
</g>
</g>
<defs>
<clipPath id="clip0_3746_2912">
<rect width="36" height="36" fill="white"/>
</clipPath>
</defs>
</svg>
