<svg width="32" height="32" viewBox="0 0 32 32" fill="none" xmlns="http://www.w3.org/2000/svg">
<rect width="32" height="32" rx="4" fill="black"/>
<path d="M25.2426 14.0428C25.4838 13.3164 25.5672 12.5469 25.4873 11.7857C25.4074 11.0245 25.1659 10.2891 24.779 9.6286C24.2055 8.63033 23.3298 7.83997 22.2782 7.37147C21.2265 6.90298 20.0532 6.78055 18.9275 7.02184C18.2879 6.31044 17.4725 5.77983 16.563 5.48333C15.6534 5.18682 14.6819 5.13486 13.746 5.33265C12.81 5.53043 11.9426 5.97102 11.2308 6.61014C10.519 7.24927 9.98791 8.06443 9.69086 8.97377C8.94089 9.12755 8.23238 9.43965 7.61269 9.88918C6.993 10.3387 6.47639 10.9153 6.0974 11.5805C5.51765 12.5771 5.26987 13.7323 5.38988 14.879C5.50989 16.0257 5.99147 17.1045 6.765 17.9595C6.5229 18.6856 6.43863 19.455 6.51785 20.2162C6.59706 20.9775 6.83793 21.713 7.22432 22.3737C7.79857 23.3723 8.67505 24.1628 9.72745 24.6313C10.7799 25.0998 11.9538 25.2221 13.0802 24.9805C13.5883 25.5527 14.2126 26.0099 14.9115 26.3216C15.6103 26.6333 16.3677 26.7923 17.1329 26.788C18.2867 26.7891 19.411 26.4234 20.3436 25.7439C21.2761 25.0644 21.9686 24.1062 22.321 23.0075C23.0709 22.8534 23.7793 22.5412 24.399 22.0917C25.0186 21.6422 25.5353 21.0656 25.9145 20.4006C26.4874 19.4055 26.7309 18.2546 26.6102 17.1127C26.4896 15.9708 26.0109 14.8962 25.2426 14.0428ZM17.1329 25.376C16.1879 25.3775 15.2726 25.0463 14.5473 24.4405L14.6749 24.3682L18.97 21.8889C19.0769 21.8262 19.1657 21.7368 19.2276 21.6294C19.2894 21.522 19.3223 21.4004 19.323 21.2765V15.2208L21.1387 16.2712C21.1477 16.2758 21.1555 16.2824 21.1614 16.2905C21.1674 16.2986 21.1713 16.3081 21.1729 16.318V21.3361C21.1706 22.4069 20.7442 23.4331 19.9871 24.1903C19.2299 24.9474 18.2037 25.3738 17.1329 25.376ZM8.44905 21.6678C7.97514 20.8495 7.80498 19.8902 7.96851 18.9588L8.09615 19.0354L12.3955 21.5147C12.5019 21.5771 12.623 21.61 12.7463 21.61C12.8697 21.61 12.9908 21.5771 13.0972 21.5147L18.3492 18.4868V20.5834C18.3487 20.5942 18.3457 20.6048 18.3406 20.6144C18.3354 20.624 18.3281 20.6323 18.3193 20.6386L13.9689 23.1477C13.0405 23.6825 11.9377 23.8271 10.9028 23.5496C9.86791 23.2722 8.9854 22.5953 8.44905 21.6678ZM7.3179 12.312C7.7951 11.4885 8.54832 10.8603 9.4442 10.5387V15.6419C9.44259 15.7651 9.47409 15.8866 9.53542 15.9936C9.59675 16.1005 9.68566 16.1891 9.79288 16.2499L15.0193 19.2651L13.2035 20.3154C13.1937 20.3206 13.1827 20.3234 13.1716 20.3234C13.1605 20.3234 13.1495 20.3206 13.1397 20.3154L8.79782 17.8107C7.87113 17.2735 7.19507 16.391 6.91769 15.3564C6.64031 14.3219 6.78422 13.2195 7.3179 12.2908V12.312ZM22.236 15.7779L16.9926 12.7331L18.8042 11.6868C18.814 11.6816 18.825 11.6788 18.8361 11.6788C18.8472 11.6788 18.8582 11.6816 18.868 11.6868L23.2099 14.1958C23.8737 14.5789 24.4149 15.1429 24.7703 15.822C25.1256 16.5011 25.2805 17.2673 25.2167 18.0311C25.153 18.7949 24.8732 19.5248 24.4102 20.1356C23.9472 20.7464 23.32 21.2128 22.6018 21.4805V16.3774C22.598 16.2543 22.5623 16.1343 22.4982 16.0292C22.434 15.9241 22.3437 15.8376 22.236 15.7779ZM24.0434 13.0605L23.9158 12.9839L19.6249 10.4834C19.5179 10.4206 19.3961 10.3875 19.272 10.3875C19.1478 10.3875 19.026 10.4206 18.919 10.4834L13.6714 13.5112V11.4148C13.6703 11.4041 13.672 11.3933 13.6765 11.3836C13.681 11.3739 13.6881 11.3656 13.6969 11.3595L18.0388 8.85466C18.7042 8.47131 19.4651 8.28535 20.2323 8.31853C20.9996 8.35172 21.7416 8.60268 22.3714 9.04207C23.0013 9.48145 23.493 10.0911 23.7891 10.7997C24.0852 11.5083 24.1735 12.2866 24.0435 13.0435L24.0434 13.0605ZM12.6804 16.7771L10.8646 15.731C10.8555 15.7256 10.8478 15.7182 10.8419 15.7093C10.836 15.7005 10.8321 15.6905 10.8305 15.6801V10.6748C10.8315 9.90696 11.051 9.15526 11.4635 8.50761C11.876 7.85995 12.4643 7.34309 13.1597 7.01747C13.8551 6.69186 14.6288 6.57093 15.3904 6.66883C16.1519 6.76674 16.8699 7.07943 17.4603 7.57034L17.3327 7.6427L13.0377 10.1218C12.9308 10.1845 12.842 10.2739 12.7801 10.3813C12.7182 10.4887 12.6853 10.6103 12.6847 10.7342L12.6804 16.7771ZM13.667 14.6509L16.0059 13.3028L18.3492 14.6509V17.347L16.0144 18.6951L13.6713 17.347L13.667 14.6509Z" fill="white"/>
</svg>
