<svg width="36" height="36" viewBox="0 0 36 36" fill="none" xmlns="http://www.w3.org/2000/svg">
<g clip-path="url(#clip0_3746_2777)">
<path d="M26.4 0H9.6C4.29806 0 0 4.29806 0 9.6V26.4C0 31.7019 4.29806 36 9.6 36H26.4C31.7019 36 36 31.7019 36 26.4V9.6C36 4.29806 31.7019 0 26.4 0Z" fill="black"/>
<path d="M30.3724 18.2761C30.3724 17.2585 30.2882 16.516 30.1058 15.7461H18.25V20.3386H25.2091C25.0688 21.4798 24.3112 23.1985 22.6275 24.3535L22.6039 24.5073L26.3525 27.3532L26.6122 27.3786C28.9973 25.2198 30.3724 22.0435 30.3724 18.2761Z" fill="#4285F4"/>
<path d="M18.2493 30.3768C21.6588 30.3768 24.521 29.2766 26.6116 27.3792L22.627 24.3542C21.5606 25.083 20.1294 25.5917 18.2493 25.5917C14.9101 25.5917 12.076 23.4331 11.0657 20.4492L10.9176 20.4616L7.01974 23.4179L6.96875 23.5567C9.04526 27.5992 13.3106 30.3768 18.2493 30.3768Z" fill="#34A853"/>
<path d="M11.0688 20.4456C10.8022 19.6755 10.648 18.8504 10.648 17.998C10.648 17.1455 10.8022 16.3205 11.0548 15.5505L11.0477 15.3866L7.10103 12.3828L6.97191 12.443C6.11607 14.1205 5.625 16.0043 5.625 17.998C5.625 19.9917 6.11607 21.8754 6.97191 23.5529L11.0688 20.4456Z" fill="#FBBC05"/>
<path d="M18.2493 10.41C20.6205 10.41 22.22 11.4137 23.132 12.2525L26.6957 8.8425C24.507 6.84875 21.6588 5.625 18.2493 5.625C13.3106 5.625 9.04526 8.40248 6.96875 12.445L11.0516 15.5524C12.076 12.5687 14.9101 10.41 18.2493 10.41Z" fill="#EB4335"/>
</g>
<defs>
<clipPath id="clip0_3746_2777">
<rect width="36" height="36" fill="white"/>
</clipPath>
</defs>
</svg>
