<svg width="36" height="36" viewBox="0 0 36 36" fill="none" xmlns="http://www.w3.org/2000/svg">
<path d="M30.9105 3.74597C26.5347 2.29654 22.7712 5.37128 21.894 8.18537C21.894 8.18537 18.7365 18.325 17.3909 22.5568C16.7489 24.574 15.1575 27.8777 12.1611 27.8777C9.72001 27.8777 8.46553 25.587 7.93577 24.2224L4.29737 14.5214C3.87568 13.5 4.31645 11.4614 6.00744 10.8511C7.81287 10.2027 8.97411 11.7136 9.27502 12.5146L13.8077 24.127C14.8884 22.7348 15.575 20.4695 16.022 18.8653L13.0448 11.0503C11.6335 7.40344 7.90188 5.74635 4.44358 7.0199C1.6422 8.05187 -1.05323 11.5865 0.41315 16.028L4.1681 25.6866C4.73813 27.1509 6.99068 31.9314 12.0806 31.9314C18.1899 31.9314 20.4826 26.7228 21.7541 22.6055C22.3897 20.5458 25.8778 9.41018 25.8778 9.41018C26.3842 7.74674 28.4439 7.26782 29.7301 7.68739C30.6371 7.98195 32.2773 9.2343 31.7475 11.1754C31.6479 11.5292 28.8677 20.4886 27.8421 23.2137C27.306 24.6356 25.9477 27.723 22.856 27.2928C21.913 29.38 21.1311 30.5922 19.9466 31.6813C23.8032 33.508 29.425 31.6686 31.792 24.5169C32.6715 21.8575 35.7589 12.2688 35.7589 12.2688C36.6552 9.3233 35.0553 5.11699 30.9105 3.74597Z" fill="url(#paint0_linear_3746_2910)"/>
<defs>
<linearGradient id="paint0_linear_3746_2910" x1="1.13852" y1="8.83071" x2="39.2332" y2="26.342" gradientUnits="userSpaceOnUse">
<stop stop-color="#40EDD8"/>
<stop offset="0.0241" stop-color="#38E7E2"/>
<stop offset="0.0844" stop-color="#28DAF7"/>
<stop offset="0.1241" stop-color="#22D5FF"/>
<stop offset="0.3602" stop-color="#1ABFFF"/>
<stop offset="0.8502" stop-color="#0786FE"/>
<stop offset="0.9088" stop-color="#047FFE"/>
</linearGradient>
</defs>
</svg>
