<svg width="36" height="36" viewBox="0 0 36 36" fill="none" xmlns="http://www.w3.org/2000/svg">
<g clip-path="url(#clip0_3746_2931)">
<path d="M13.0974 0.847656L15.5483 5.09365L13.0974 9.33605H32.7016L30.2507 13.5802H11.1384L8.44141 8.91183L13.0974 0.847656Z" fill="white"/>
<path d="M3.30078 9.33594H8.20097L17.7553 25.8885L15.0619 30.5588L5.75176 30.557L8.20274 26.311L13.103 26.3128L3.30078 9.33594Z" fill="white"/>
<path d="M15.5469 30.5565L17.9978 34.8007L27.7999 17.8238L30.2492 22.0681H35.1511L30.497 14.0039L25.1066 14.0057L15.5469 30.5565Z" fill="white"/>
<path d="M13.0974 0.847656L15.5483 5.09365L13.0974 9.33605H32.7016L30.2507 13.5802H11.1384L8.44141 8.91183L13.0974 0.847656Z" fill="url(#paint0_linear_3746_2931)"/>
<path d="M5.74998 30.5588L8.20097 26.3128L13.1012 26.3146L3.30078 9.33594H8.19918L17.7553 25.8885L15.0619 30.5588H5.74998Z" fill="url(#paint1_linear_3746_2931)"/>
<path d="M35.1551 22.0681H30.2532L27.8021 17.8238L18.0018 34.8007L15.5508 30.5583L25.1088 14.0057L30.4991 14.0039L35.1551 22.0681Z" fill="url(#paint2_linear_3746_2931)"/>
<path d="M35.8877 21.6435L31.7238 14.4296L31.2335 13.5793L33.4385 9.76116C33.5134 9.63099 33.5526 9.48304 33.5526 9.33689C33.5526 9.19074 33.5151 9.04279 33.4385 8.91267L30.9876 4.66845C30.9126 4.53832 30.804 4.43138 30.6773 4.35828C30.5508 4.2852 30.4046 4.24421 30.2532 4.24421H20.9411L18.7362 0.424242C18.5847 0.16221 18.3048 0 18.0018 0H13.1016C12.9501 0 12.804 0.0409982 12.6773 0.114082C12.5508 0.187166 12.442 0.294118 12.3654 0.424242L8.19964 7.63995L7.70946 8.48665H3.29946C3.14794 8.48665 3.00178 8.52765 2.87522 8.60069C2.74866 8.6738 2.63993 8.78075 2.56328 8.91087L0.114082 13.1533C0.0392157 13.2834 0 13.4314 0 13.5775C0 13.7238 0.0374331 13.8717 0.114082 14.0018L4.77006 22.066L2.56507 25.8859C2.4902 26.0179 2.45098 26.164 2.45098 26.3102C2.45098 26.4563 2.48841 26.6043 2.56507 26.7344L5.01604 30.9786C5.09091 31.1087 5.19964 31.2157 5.3262 31.2887C5.45276 31.3619 5.59893 31.4029 5.75044 31.4029H15.0606L17.2656 35.2229C17.4171 35.4849 17.6969 35.647 18 35.647H22.9002C23.0517 35.647 23.1978 35.606 23.3244 35.533C23.451 35.4599 23.5597 35.3529 23.6346 35.2229L28.2905 27.1586H32.7005C32.852 27.1586 32.9982 27.1177 33.1247 27.0446C33.2513 26.9715 33.3601 26.8646 33.4349 26.7344L35.8859 22.4902C35.9625 22.3601 36 22.2121 36 22.066C36 21.9197 35.9625 21.7718 35.8859 21.6417L35.8877 21.6435ZM13.0998 0.846703L15.5508 5.09091L13.0998 9.33509H32.7041L30.2548 13.5775H11.1408L8.44386 8.90907L13.0998 0.846703ZM15.0606 30.5579H5.75044L8.20144 26.3102H13.1016L3.29947 9.33509H8.19964L10.6489 13.5793L17.754 25.8894L15.0588 30.5597L15.0606 30.5579ZM30.2514 22.066L27.8021 17.8217L18 34.7986L15.5491 30.5543L18 26.3102L25.107 14.0036H30.4991L35.1533 22.0642H30.2514V22.066Z" fill="url(#paint3_linear_3746_2931)"/>
<path d="M35.8877 21.6435L31.7238 14.4296L31.2335 13.5793L33.4385 9.76116C33.5134 9.63099 33.5526 9.48304 33.5526 9.33689C33.5526 9.19074 33.5151 9.04279 33.4385 8.91267L30.9876 4.66845C30.9126 4.53832 30.804 4.43138 30.6773 4.35828C30.5508 4.2852 30.4046 4.24421 30.2532 4.24421H20.9411L18.7362 0.424242C18.5847 0.16221 18.3048 0 18.0018 0H13.1016C12.9501 0 12.804 0.0409982 12.6773 0.114082C12.5508 0.187166 12.442 0.294118 12.3654 0.424242L8.19964 7.63995L7.70946 8.48665H3.29946C3.14794 8.48665 3.00178 8.52765 2.87522 8.60069C2.74866 8.6738 2.63993 8.78075 2.56328 8.91087L0.114082 13.1533C0.0392157 13.2834 0 13.4314 0 13.5775C0 13.7238 0.0374331 13.8717 0.114082 14.0018L4.77006 22.066L2.56507 25.8859C2.4902 26.0179 2.45098 26.164 2.45098 26.3102C2.45098 26.4563 2.48841 26.6043 2.56507 26.7344L5.01604 30.9786C5.09091 31.1087 5.19964 31.2157 5.3262 31.2887C5.45276 31.3619 5.59893 31.4029 5.75044 31.4029H15.0606L17.2656 35.2229C17.4171 35.4849 17.6969 35.647 18 35.647H22.9002C23.0517 35.647 23.1978 35.606 23.3244 35.533C23.451 35.4599 23.5597 35.3529 23.6346 35.2229L28.2905 27.1586H32.7005C32.852 27.1586 32.9982 27.1177 33.1247 27.0446C33.2513 26.9715 33.3601 26.8646 33.4349 26.7344L35.8859 22.4902C35.9625 22.3601 36 22.2121 36 22.066C36 21.9197 35.9625 21.7718 35.8859 21.6417L35.8877 21.6435ZM13.0998 0.846703L15.5508 5.09091L13.0998 9.33509H32.7041L30.2548 13.5775H11.1408L8.44386 8.90907L13.0998 0.846703ZM15.0606 30.5579H5.75044L8.20144 26.3102H13.1016L3.29947 9.33509H8.19964L10.6489 13.5793L17.754 25.8894L15.0588 30.5597L15.0606 30.5579ZM30.2514 22.066L27.8021 17.8217L18 34.7986L15.5491 30.5543L18 26.3102L25.107 14.0036H30.4991L35.1533 22.0642H30.2514V22.066Z" fill="url(#paint4_linear_3746_2931)"/>
<path d="M35.8877 21.6435L31.7238 14.4296L31.2335 13.5793L33.4385 9.76116C33.5134 9.63099 33.5526 9.48304 33.5526 9.33689C33.5526 9.19074 33.5151 9.0428 33.4385 8.91267L30.9876 4.66845C30.9126 4.53832 30.804 4.43138 30.6773 4.35828C30.5508 4.2852 30.4046 4.24421 30.2532 4.24421H20.9411L18.7362 0.424242C18.5847 0.16221 18.3048 0 18.0018 0H13.1016C12.9501 0 12.804 0.0409981 12.6773 0.114082C12.5508 0.187166 12.4421 0.294118 12.3654 0.424242L8.19964 7.63995L7.70946 8.48665H3.29946C3.14794 8.48665 3.00178 8.52765 2.87522 8.60069C2.74866 8.6738 2.63992 8.78075 2.56328 8.91087L0.114082 13.1533C0.0392157 13.2834 0 13.4314 0 13.5775C0 13.7238 0.0374331 13.8717 0.114082 14.0017L4.77006 22.066L2.56507 25.8859C2.4902 26.0179 2.45098 26.164 2.45098 26.3102C2.45098 26.4563 2.48841 26.6043 2.56507 26.7344L5.01604 30.9786C5.09091 31.1087 5.19964 31.2157 5.3262 31.2887C5.45276 31.3618 5.59893 31.4029 5.75044 31.4029H15.0606L17.2656 35.2229C17.4171 35.4849 17.6969 35.647 18 35.647H22.9002C23.0517 35.647 23.1978 35.606 23.3244 35.533C23.451 35.4599 23.5597 35.3529 23.6346 35.2229L28.2905 27.1586H32.7005C32.852 27.1586 32.9982 27.1177 33.1247 27.0445C33.2513 26.9715 33.3601 26.8646 33.4349 26.7344L35.8859 22.4902C35.9625 22.3601 36 22.2121 36 22.066C36 21.9197 35.9625 21.7718 35.8859 21.6417L35.8877 21.6435ZM13.0998 0.846703L15.5508 5.09091L13.0998 9.33509H32.7041L30.2549 13.5775H11.1408L8.44386 8.90907L13.0998 0.846703ZM15.0606 30.5579H5.75044L8.20144 26.3102H13.1016L3.29947 9.33509H8.19964L10.6489 13.5793L17.754 25.8894L15.0588 30.5597L15.0606 30.5579ZM30.2514 22.066L27.8021 17.8217L18 34.7986L15.5491 30.5543L18 26.3102L25.107 14.0036H30.4991L35.1533 22.0642H30.2514V22.066Z" fill="url(#paint5_linear_3746_2931)"/>
</g>
<defs>
<linearGradient id="paint0_linear_3746_2931" x1="11.0154" y1="13.3682" x2="18.3964" y2="-2.10118" gradientUnits="userSpaceOnUse">
<stop stop-color="#6964ED" stop-opacity="0.53"/>
<stop offset="0.01" stop-color="#8884F1" stop-opacity="0.62"/>
<stop offset="0.03" stop-color="#A4A2F4" stop-opacity="0.72"/>
<stop offset="0.04" stop-color="#BDBBF7" stop-opacity="0.79"/>
<stop offset="0.06" stop-color="#D2D0F9" stop-opacity="0.86"/>
<stop offset="0.07" stop-color="#E2E1FB" stop-opacity="0.91"/>
<stop offset="0.09" stop-color="#EFEFFD" stop-opacity="0.95"/>
<stop offset="0.12" stop-color="#F8F8FE" stop-opacity="0.98"/>
<stop offset="0.15" stop-color="#FDFDFE"/>
<stop offset="0.25" stop-color="white"/>
</linearGradient>
<linearGradient id="paint1_linear_3746_2931" x1="17.6355" y1="26.1009" x2="-1.76884" y2="20.9046" gradientUnits="userSpaceOnUse">
<stop stop-color="#6964ED" stop-opacity="0.53"/>
<stop offset="0.01" stop-color="#8884F1" stop-opacity="0.62"/>
<stop offset="0.03" stop-color="#A4A2F4" stop-opacity="0.72"/>
<stop offset="0.04" stop-color="#BDBBF7" stop-opacity="0.79"/>
<stop offset="0.06" stop-color="#D2D0F9" stop-opacity="0.86"/>
<stop offset="0.07" stop-color="#E2E1FB" stop-opacity="0.91"/>
<stop offset="0.09" stop-color="#EFEFFD" stop-opacity="0.95"/>
<stop offset="0.12" stop-color="#F8F8FE" stop-opacity="0.98"/>
<stop offset="0.15" stop-color="#FDFDFE"/>
<stop offset="0.25" stop-color="white"/>
</linearGradient>
<linearGradient id="paint2_linear_3746_2931" x1="25.3532" y1="14.0038" x2="25.354" y2="34.8012" gradientUnits="userSpaceOnUse">
<stop stop-color="#6964ED" stop-opacity="0.53"/>
<stop offset="0.01" stop-color="#8884F1" stop-opacity="0.62"/>
<stop offset="0.03" stop-color="#A4A2F4" stop-opacity="0.72"/>
<stop offset="0.04" stop-color="#BDBBF7" stop-opacity="0.79"/>
<stop offset="0.06" stop-color="#D2D0F9" stop-opacity="0.86"/>
<stop offset="0.07" stop-color="#E2E1FB" stop-opacity="0.91"/>
<stop offset="0.09" stop-color="#EFEFFD" stop-opacity="0.95"/>
<stop offset="0.12" stop-color="#F8F8FE" stop-opacity="0.98"/>
<stop offset="0.15" stop-color="#FDFDFE"/>
<stop offset="0.25" stop-color="white"/>
</linearGradient>
<linearGradient id="paint3_linear_3746_2931" x1="33.4385" y1="8.91086" x2="2.72018" y2="26.9995" gradientUnits="userSpaceOnUse">
<stop stop-color="#615CED"/>
<stop offset="0.17" stop-color="#6156EC"/>
<stop offset="0.38" stop-color="#6147E9"/>
<stop offset="0.61" stop-color="#622FE4"/>
<stop offset="0.62" stop-color="#632DE4"/>
</linearGradient>
<linearGradient id="paint4_linear_3746_2931" x1="0" y1="17.8235" x2="36.0018" y2="17.8235" gradientUnits="userSpaceOnUse">
<stop stop-color="#615CED"/>
<stop offset="0.04" stop-color="#615CED" stop-opacity="0.96"/>
<stop offset="0.09" stop-color="#615CED" stop-opacity="0.86"/>
<stop offset="0.17" stop-color="#615CED" stop-opacity="0.69"/>
<stop offset="0.25" stop-color="#615CED" stop-opacity="0.46"/>
<stop offset="0.35" stop-color="#615CED" stop-opacity="0.16"/>
<stop offset="0.4" stop-color="#615CED" stop-opacity="0"/>
</linearGradient>
<linearGradient id="paint5_linear_3746_2931" x1="27.0018" y1="2.23351" x2="9.26602" y2="33.5623" gradientUnits="userSpaceOnUse">
<stop stop-color="#A7A5F6"/>
<stop offset="0.05" stop-color="#9895F4" stop-opacity="0.79"/>
<stop offset="0.12" stop-color="#8784F1" stop-opacity="0.55"/>
<stop offset="0.19" stop-color="#7975F0" stop-opacity="0.35"/>
<stop offset="0.25" stop-color="#6F6AEE" stop-opacity="0.2"/>
<stop offset="0.31" stop-color="#6762ED" stop-opacity="0.09"/>
<stop offset="0.36" stop-color="#625DED" stop-opacity="0.02"/>
<stop offset="0.4" stop-color="#615CED" stop-opacity="0"/>
</linearGradient>
<clipPath id="clip0_3746_2931">
<rect width="36" height="36" fill="white"/>
</clipPath>
</defs>
</svg>
