<svg width="200" height="200" viewBox="0 0 200 200" fill="none" xmlns="http://www.w3.org/2000/svg">
<rect width="200" height="200" rx="12" fill="#08041D"/>
<path d="M133.587 123.291C133.784 122.561 134.82 122.561 135.017 123.291L136.873 130.183C136.941 130.437 137.14 130.636 137.395 130.705L144.286 132.561C145.017 132.757 145.017 133.794 144.286 133.99L137.395 135.846C137.14 135.915 136.941 136.114 136.873 136.368L135.017 143.26C134.82 143.991 133.784 143.991 133.587 143.26L131.732 136.368C131.663 136.114 131.464 135.915 131.209 135.846L124.318 133.99C123.587 133.794 123.587 132.757 124.318 132.561L131.209 130.705C131.464 130.636 131.663 130.437 131.732 130.183L133.587 123.291Z" fill="#D5E7FF"/>
<path d="M150.469 94.6462C150.698 93.7966 151.903 93.7966 152.132 94.6462L154.29 102.661C154.37 102.957 154.601 103.189 154.897 103.268L162.912 105.426C163.762 105.655 163.762 106.86 162.912 107.089L154.897 109.247C154.601 109.327 154.37 109.558 154.29 109.855L152.132 117.869C151.903 118.719 150.698 118.719 150.469 117.869L148.311 109.855C148.231 109.558 148 109.327 147.703 109.247L139.689 107.089C138.839 106.86 138.839 105.655 139.689 105.426L147.703 103.268C148 103.189 148.231 102.957 148.311 102.661L150.469 94.6462Z" fill="#D5E7FF"/>
<path d="M105.239 138.241C105.41 137.608 106.308 137.608 106.478 138.241L108.086 144.213C108.146 144.434 108.318 144.607 108.539 144.666L114.512 146.274C115.145 146.444 115.145 147.343 114.512 147.513L108.539 149.121C108.318 149.181 108.146 149.353 108.086 149.574L106.478 155.546C106.308 156.18 105.41 156.18 105.239 155.546L103.631 149.574C103.572 149.353 103.399 149.181 103.178 149.121L97.2059 147.513C96.5728 147.343 96.5728 146.444 97.2059 146.274L103.178 144.666C103.399 144.607 103.572 144.434 103.631 144.213L105.239 138.241Z" fill="#D5E7FF"/>
<path d="M109.902 123.202H73.3203L66.2324 150.004C64.369 157.05 57.9391 162.029 50.5098 162.029C39.7413 162.029 32.0749 151.909 34.8057 141.767L59.5594 49.8332C61.6505 42.0671 69.2404 37.1192 77.1595 38.1696L77.458 38.2092H150.006C158.901 38.2092 166 45.3681 166 54.0601C166 62.752 158.901 69.911 150.006 69.911H95.627C90.7832 69.911 86.5443 73.1975 85.295 77.9215C83.4825 84.7752 88.5997 91.5005 95.627 91.5005H109.902C118.798 91.5005 125.897 98.6595 125.897 107.351C125.897 116.043 118.798 123.202 109.902 123.202Z" fill="url(#paint0_linear_1_20)"/>
<defs>
<linearGradient id="paint0_linear_1_20" x1="59.625" y1="61.375" x2="170.235" y2="177.724" gradientUnits="userSpaceOnUse">
<stop stop-color="#D5E7FF"/>
<stop offset="1" stop-color="#1677FF"/>
</linearGradient>
</defs>
</svg>
