<svg width="24" height="24" viewBox="0 0 24 24" fill="none" xmlns="http://www.w3.org/2000/svg">
<path d="M11.4483 19.6667H8.15946C7.17206 19.6667 6.36419 18.9167 6.36419 18V9.66667H4.43428C4.22066 9.66724 4.01383 9.59707 3.85094 9.46876C3.68806 9.34046 3.5798 9.16243 3.54562 8.96667L3.02499 6.075C2.95379 5.68297 3.03588 5.28022 3.25645 4.93945C3.47702 4.59868 3.82154 4.34233 4.22782 4.21667L8.15946 3C8.15946 3.88405 8.53775 4.7319 9.21111 5.35702C9.88446 5.98214 10.7977 6.33333 11.75 6.33333C12.7023 6.33333 13.6155 5.98214 14.2889 5.35702C14.9622 4.7319 15.3405 3.88405 15.3405 3L19.2722 4.21667C19.6785 4.34233 20.023 4.59868 20.2435 4.93945C20.4641 5.28022 20.5462 5.68297 20.475 6.075L19.9544 8.96667C19.9202 9.16243 19.8119 9.34046 19.6491 9.46876C19.4862 9.59707 19.2793 9.66724 19.0657 9.66667H17.1358V13.7489" stroke="#CFCFCF" stroke-width="1.25" stroke-linecap="square" stroke-linejoin="round"/>
<path d="M16.8785 15.5625L17.8564 18.2053L20.4992 19.1832L17.8564 20.1611L16.8785 22.8039L15.9006 20.1611L13.2578 19.1832L15.9006 18.2053L16.8785 15.5625Z" fill="#CFCFCF"/>
</svg>
